<svg width="211" height="216" xmlns="http://www.w3.org/2000/svg" xmlns:xlink="http://www.w3.org/1999/xlink" xml:space="preserve" overflow="hidden"><g transform="translate(-2282 -792)"><g><path d="M2468.76 849.083C2472.89 849.242 2475.42 849.572 2475.42 849.572 2475.42 849.572 2480.75 889.905 2459.08 911.527 2444.03 926.562 2419.91 928.572 2406.61 928.403 2399.67 932.623 2394.29 938.976 2391.28 946.507 2389 951.698 2387.71 957.27 2387.47 962.935L2387.87 983.423 2391.53 982.527C2393.12 982.374 2394.7 982.283 2396.29 982.283 2408.6 982.281 2420.44 986.971 2429.4 995.394 2436.98 996.022 2444.2 998.408 2450.54 1002.24L2453.35 1005 2317.78 1005 2310 1003.43 2310.14 1003.26C2324.18 991.485 2344.31 988.289 2361.88 996.559 2365.43 992.999 2369.52 990.017 2374 987.721L2374 962.935C2374.09 960.904 2373.91 958.871 2373.45 956.891 2371.95 952.095 2369.56 947.623 2366.41 943.707 2355.13 943.565 2337.13 941.339 2325.59 929.816 2307.76 912.023 2312.14 878.799 2312.14 878.799 2312.14 878.799 2345.42 874.427 2363.25 892.226 2375.99 904.935 2377.39 925.513 2377.16 936.234 2378.16 937.456 2379.08 938.739 2379.92 940.074 2383.55 931.903 2389.25 924.814 2396.45 919.506 2396.15 906.533 2397.8 881.399 2413.33 865.9 2429.57 849.683 2456.38 848.607 2468.76 849.083Z" fill="#4AC073" fill-rule="evenodd" fill-opacity="1"/><path d="M2317.83 797 2457.17 797C2476.4 797 2492 812.521 2492 831.668L2492 970.333C2492 989.479 2476.4 1005 2457.17 1005L2453.84 1005 2451.02 1002.24C2444.66 998.406 2437.42 996.019 2429.81 995.391 2420.82 986.966 2408.94 982.275 2396.59 982.277 2395 982.277 2393.41 982.367 2391.82 982.52L2388.15 983.417 2387.75 962.923C2387.98 957.256 2389.28 951.683 2391.57 946.491 2394.59 938.957 2399.99 932.603 2406.95 928.381 2420.29 928.55 2444.49 926.54 2459.59 911.501 2481.32 889.873 2475.98 849.529 2475.98 849.529 2475.98 849.529 2473.44 849.198 2469.3 849.039 2456.87 848.563 2429.98 849.639 2413.69 865.861 2398.11 881.364 2396.45 906.505 2396.76 919.482 2389.53 924.792 2383.82 931.882 2380.18 940.055 2379.33 938.72 2378.4 937.437 2377.4 936.215 2377.64 925.49 2376.23 904.907 2363.46 892.194 2345.57 874.39 2312.17 878.764 2312.17 878.764 2312.17 878.764 2307.78 911.997 2325.67 929.795 2337.24 941.321 2355.31 943.547 2366.62 943.69 2369.78 947.607 2372.18 952.081 2373.68 956.877 2374.14 958.858 2374.33 960.892 2374.24 962.923L2374.24 987.716C2369.74 990.012 2365.64 992.996 2362.08 996.557 2344.45 988.285 2324.26 991.481 2310.17 1003.26L2310.03 1003.43 2304.27 1002.28C2291.77 997.013 2283 984.692 2283 970.333L2283 831.668C2283 812.521 2298.6 797 2317.83 797Z" fill="#C9FFD1" fill-rule="evenodd" fill-opacity="1"/></g></g></svg>