<svg width="1160" height="390" xmlns="http://www.w3.org/2000/svg" xmlns:xlink="http://www.w3.org/1999/xlink" xml:space="preserve" overflow="hidden"><g transform="translate(-1012 -948)"><g><path d="M2093 1086.88C2092.93 1090.19 2095.56 1092.93 2098.87 1093 2102.19 1093.07 2104.93 1090.44 2105 1087.13 2105 1087.05 2105 1086.96 2105 1086.88 2105 1082.9 2099 1074 2099 1074 2099 1074 2093 1082.87 2093 1086.88Z" fill="#FFFFFF" fill-rule="evenodd" fill-opacity="1"/><path d="M2080 1109C2083.31 1109 2086 1106.44 2086 1103.28 2086 1103.28 2086 1103.28 2086 1103.28 2086 1099.48 2080 1091 2080 1091 2080 1091 2074 1099.46 2074 1103.28 2074 1106.44 2076.68 1109 2079.99 1109 2080 1109 2080 1109 2080 1109Z" fill="#FFFFFF" fill-rule="evenodd" fill-opacity="1"/><path d="M2114 1118C2117.4 1117.91 2120.08 1115.12 2120 1111.75 2120 1107.81 2114 1099 2114 1099 2114 1099 2108 1107.79 2108 1111.75 2107.92 1115.12 2110.6 1117.91 2114 1118Z" fill="#FFFFFF" fill-rule="evenodd" fill-opacity="1"/><path d="M2093.38 1064.8C2093.47 1067.43 2095.69 1069.49 2098.35 1069.41 2100.95 1069.32 2103 1067.21 2103 1064.63L2103 1044.18C2103 1041.54 2100.84 1039.41 2098.18 1039.42 2095.52 1039.42 2093.37 1041.56 2093.38 1044.2 2093.38 1044.25 2093.38 1044.3 2093.38 1044.35L2093.09 1049.9 2026.1 1049.9 2046.44 1029.73C2046.74 1029.43 2046.99 1029.1 2047.19 1028.73 2064.51 1008.78 2062.23 978.692 2042.1 961.529 2021.97 944.365 1991.61 946.626 1974.29 966.578 1964.56 977.782 1960.64 992.825 1963.65 1007.3L1944.41 1026.37C1942.53 1028.23 1942.53 1031.25 1944.41 1033.12 1944.41 1033.12 1944.41 1033.12 1944.41 1033.12L1990.41 1078.6C1992.28 1080.46 1995.32 1080.47 1997.2 1078.61 1997.21 1078.61 1997.21 1078.6 1997.21 1078.6L2005.73 1070.16 2093.38 1060.15ZM2000.54 977.478C1998.67 975.615 1995.63 975.611 1993.75 977.469 1993.74 977.472 1993.74 977.475 1993.74 977.478L1972.33 998.693C1971.71 977.637 1988.44 960.075 2009.69 959.466 2030.93 958.859 2048.65 975.435 2049.26 996.491 2049.5 1004.55 2047.15 1012.47 2042.56 1019.12Z" fill="#FFFFFF" fill-rule="evenodd" fill-opacity="1"/><path d="M2160.33 1108.04C2162.43 1108.12 2163.71 1108.29 2163.71 1108.29 2163.71 1108.29 2166.41 1128.88 2155.43 1139.92 2147.8 1147.6 2135.57 1148.62 2128.83 1148.54 2125.31 1150.69 2122.58 1153.94 2121.06 1157.78 2119.9 1160.43 2119.24 1163.28 2119.13 1166.17L2119.33 1176.63 2121.18 1176.17C2121.99 1176.09 2122.79 1176.05 2123.59 1176.05 2129.83 1176.05 2135.84 1178.44 2140.38 1182.74 2144.22 1183.06 2147.88 1184.28 2151.09 1186.24L2154.42 1189.52 2156.09 1189.52 2156.09 1191.16 2159.13 1194.17 2156.09 1194.17 2156.09 1243 2074.28 1243 2074.28 1194.17 2074 1194.17 2074.28 1193.82 2074.28 1189.52 2077.71 1189.52 2079.93 1186.76C2087.05 1180.75 2097.25 1179.11 2106.15 1183.34 2107.96 1181.52 2110.03 1180 2112.3 1178.82L2112.3 1166.17C2112.34 1165.13 2112.25 1164.09 2112.02 1163.08 2111.26 1160.63 2110.05 1158.35 2108.45 1156.35 2102.73 1156.28 2093.61 1155.14 2087.76 1149.26 2078.72 1140.18 2080.94 1123.21 2080.94 1123.21 2080.94 1123.21 2097.81 1120.98 2106.85 1130.07 2113.31 1136.56 2114.02 1147.06 2113.9 1152.54 2114.4 1153.16 2114.87 1153.82 2115.3 1154.5 2117.14 1150.33 2120.03 1146.71 2123.68 1144 2123.52 1137.37 2124.36 1124.54 2132.23 1116.63 2140.46 1108.35 2154.05 1107.8 2160.33 1108.04Z" fill="#FFFFFF" fill-rule="evenodd" fill-opacity="0.701961"/><path d="M1209.14 1150.01C1225.79 1149.76 1241.44 1155.95 1253.37 1167.58 1259.33 1173.02 1259.58 1182.68 1253.86 1188.37 1248.15 1194.31 1238.71 1194.56 1232.74 1188.86 1226.53 1182.92 1218.33 1179.71 1209.63 1179.71 1200.94 1179.71 1192.98 1183.42 1186.77 1189.61 1181.06 1195.79 1177.58 1203.96 1177.83 1212.62 1177.83 1221.04 1181.55 1229.45 1187.77 1235.14 1193.98 1241.33 1202.18 1244.55 1210.63 1244.3 1218.83 1244.3 1226.53 1241.08 1232.49 1235.64 1238.21 1229.95 1247.9 1230.44 1253.37 1236.38 1259.08 1242.32 1258.59 1251.73 1252.62 1257.42 1241.44 1267.81 1226.78 1273.75 1211.37 1274L1210.38 1274C1193.98 1274 1178.82 1267.81 1167.14 1256.68 1155.21 1245.04 1148.5 1229.7 1148.01 1213.12 1147.76 1196.78 1153.72 1180.94 1165.65 1169.06 1177.08 1157.18 1192.49 1150.5 1209.14 1150.01Z" fill="#FFFFFF" fill-rule="evenodd" fill-opacity="1"/><path d="M1334.88 1150C1368.9 1150 1396.75 1178.14 1397 1212.75 1396.75 1247.11 1368.9 1275 1334.88 1275 1300.86 1275 1273 1247.11 1273 1212.5 1273 1178.14 1300.86 1150 1334.88 1150ZM1334.88 1180.63C1317.37 1180.63 1303.32 1194.82 1303.32 1212.5 1303.32 1230.18 1317.37 1244.37 1334.88 1244.37 1352.38 1244.37 1366.43 1230.18 1366.43 1212.5 1366.43 1194.82 1352.38 1180.63 1334.88 1180.63Z" fill="#FFFFFF" fill-rule="evenodd" fill-opacity="1"/><path d="M1076.97 1152C1080.69 1152 1084.16 1152.25 1087.87 1152.99 1104.73 1156.2 1119.11 1166.57 1128.03 1181.39 1132 1188.31 1136.46 1197.45 1135.96 1205.6 1135.96 1207.82 1134.97 1210.29 1133.98 1212.76 1132 1217.46 1127.78 1221.66 1121.83 1221.66L1045.49 1221.66C1048.96 1235.74 1061.6 1246.61 1076.97 1246.61 1084.9 1246.61 1096.55 1243.39 1103 1237.22 1108.94 1231.54 1118.36 1231.54 1124.06 1237.47 1130.01 1243.15 1129.77 1252.78 1123.82 1258.46 1110.18 1271.55 1091.1 1276 1076.97 1276 1042.51 1276 1015 1248.33 1015 1214 1015 1180.16 1042.51 1152 1076.97 1152ZM1076.97 1181.89C1065.57 1181.89 1055.65 1187.57 1049.7 1196.71L1102.25 1196.71C1097.29 1187.32 1088.12 1181.89 1076.97 1181.89Z" fill="#FFFFFF" fill-rule="evenodd" fill-opacity="1"/><path d="M1554.04 1087C1562.18 1087 1568.84 1093.94 1568.84 1102.11L1568.84 1160.07C1578.95 1153.63 1590.79 1149.67 1603.61 1149.67 1637.89 1149.67 1666 1177.66 1666 1212.33 1666 1247.01 1637.89 1275 1603.61 1275 1590.54 1275 1578.21 1271.04 1568.35 1264.1 1566.37 1270.05 1560.7 1274.5 1554.04 1274.5 1545.66 1274.5 1539 1267.82 1539 1259.64L1539 1102.11C1539 1093.94 1545.66 1087 1554.04 1087ZM1603.61 1179.64C1585.61 1179.64 1571.06 1194.25 1571.06 1212.33 1571.06 1230.41 1585.61 1245.03 1603.61 1245.03 1621.37 1245.03 1636.16 1230.41 1636.16 1212.33 1636.16 1194.25 1621.37 1179.64 1603.61 1179.64Z" fill="#FFFFFF" fill-rule="evenodd" fill-opacity="1"/><path d="M1434.85 1087C1443.27 1087 1449.95 1093.69 1449.95 1101.86L1449.95 1236.36C1449.95 1237.1 1449.7 1237.85 1449.7 1238.59 1449.7 1239.33 1449.95 1240.07 1449.95 1240.82 1449.95 1243.05 1451.68 1245.03 1453.91 1245.03 1462.32 1245.03 1469 1251.72 1469 1259.89 1469 1268.31 1462.32 1275 1453.91 1275 1443.51 1275 1433.37 1269.8 1426.94 1261.62 1419.51 1251.96 1420.01 1241.07 1420.01 1229.42L1420.01 1155.36C1420.01 1137.53 1420.01 1119.7 1420.01 1101.86 1420.01 1093.69 1426.69 1087 1434.85 1087Z" fill="#FFFFFF" fill-rule="evenodd" fill-opacity="1"/><path d="M1502.75 1098C1511 1098 1518 1104.75 1518 1113.5L1518 1114.75C1518 1123 1511 1130 1502.75 1130 1494 1130 1487 1123 1487 1114.75L1487 1113.5C1487 1104.75 1494 1098 1502.75 1098Z" fill="#FFFFFF" fill-rule="evenodd" fill-opacity="1"/><path d="M1502.75 1149C1511 1149 1518 1155.68 1518 1164.1L1518 1259.65C1518 1268.07 1511 1275 1502.75 1275 1494 1275 1487 1268.07 1487 1259.65L1487 1164.1C1487 1155.68 1494 1149 1502.75 1149Z" fill="#FFFFFF" fill-rule="evenodd" fill-opacity="1"/><path d="M1695.85 1151C1702.54 1151 1707.98 1155.2 1709.96 1161.13 1719.12 1155.45 1730.02 1151.99 1741.41 1151.99 1756.75 1151.99 1771.11 1157.92 1782.25 1168.29 1788.19 1173.72 1788.69 1183.11 1783 1189.04 1777.3 1194.97 1768.14 1195.46 1761.95 1189.78 1756.51 1184.59 1749.08 1181.63 1741.41 1181.63 1724.57 1181.63 1710.71 1195.96 1710.71 1213.49L1710.71 1260.18C1710.71 1268.33 1704.02 1275 1695.85 1275 1687.68 1275 1681 1268.33 1681 1260.18L1681 1165.57C1681 1157.42 1687.68 1151 1695.85 1151Z" fill="#FFFFFF" fill-rule="evenodd" fill-opacity="1"/><path d="M1956.85 1151C1963.54 1151 1968.98 1155.2 1970.96 1161.13 1980.12 1155.45 1991.02 1151.99 2002.41 1151.99 2017.75 1151.99 2032.11 1157.92 2043.25 1168.29 2049.19 1173.72 2049.69 1183.11 2044 1189.04 2038.3 1194.97 2029.14 1195.46 2022.95 1189.78 2017.51 1184.59 2010.08 1181.63 2002.41 1181.63 1985.57 1181.63 1971.71 1195.96 1971.71 1213.49L1971.71 1260.18C1971.71 1268.33 1965.02 1275 1956.85 1275 1948.68 1275 1942 1268.33 1942 1260.18L1942 1165.57C1942 1157.42 1948.68 1151 1956.85 1151Z" fill="#FFFFFF" fill-rule="evenodd" fill-opacity="1"/><path d="M1903.67 1151C1911.82 1151 1918 1157.43 1918 1165.11L1918 1259.89C1918 1267.57 1911.82 1274 1903.67 1274 1895.52 1274 1890.58 1267.57 1890.58 1259.89L1890.58 1256.92C1879.96 1266.08 1867.6 1271.53 1852.78 1271.53 1819.68 1271.53 1793 1244.8 1793 1211.88 1793 1178.97 1819.68 1151.99 1852.78 1151.99 1867.6 1151.99 1879.96 1157.68 1890.58 1166.34L1890.58 1165.11C1890.58 1157.43 1895.52 1151 1903.67 1151ZM1852.78 1180.95C1835.74 1180.95 1821.66 1194.8 1821.66 1211.88 1821.66 1228.96 1835.74 1242.57 1852.78 1242.57 1869.58 1242.57 1883.66 1228.96 1883.66 1211.88 1883.66 1194.8 1869.58 1180.95 1852.78 1180.95Z" fill="#FFFFFF" fill-rule="evenodd" fill-opacity="1"/><path d="M2155.51 1152C2163.61 1152 2170 1158.7 2170 1166.88L2170 1275.26C2170 1309.73 2142.73 1338 2109.57 1338 2091.88 1338 2075.42 1330.06 2063.88 1316.18 2058.72 1309.98 2059.46 1300.55 2065.35 1295.1 2071.25 1289.64 2080.34 1290.38 2085.5 1296.83 2091.64 1304.02 2100.48 1308.24 2109.57 1308.24 2127.01 1308.24 2141.26 1293.36 2141.26 1275.26L2141.26 1265.09C2133.15 1269.8 2123.57 1272.78 2113.25 1272.78 2082.3 1272.78 2057 1245.5 2057 1211.77L2057 1167.38C2057 1159.44 2063.39 1152.5 2071.25 1152.5 2079.11 1152.5 2085.5 1159.44 2085.5 1167.38L2085.5 1211.77C2085.5 1228.88 2098.02 1243.02 2113.25 1243.02 2128.73 1243.02 2141.26 1228.88 2141.26 1211.77L2141.26 1166.88C2141.26 1158.7 2147.89 1152 2155.51 1152Z" fill="#FFFFFF" fill-rule="evenodd" fill-opacity="1"/></g></g></svg>